<!-- icon666.com - MILLIONS vector ICONS FREE --><svg version="1.1" id="Capa_1" xmlns="http://www.w3.org/2000/svg" xmlns:xlink="http://www.w3.org/1999/xlink" x="0px" y="0px" viewBox="0 0 512 512" style="enable-background:new 0 0 512 512;" xml:space="preserve" width="100" height="100">
<g><g><path d="M398.543,215.772C356.328,187.424,307.038,172.44,256,172.44c-32.035,0-63.299,5.854-92.923,17.398 c-3.859,1.504-5.769,5.852-4.265,9.711c1.504,3.859,5.852,5.771,9.712,4.265c25.637-9.991,52.585-15.44,80.208-16.255v14.473 c0,4.142,3.357,7.5,7.5,7.5s7.5-3.358,7.5-7.5v-14.463c45.284,1.431,88.851,15.407,126.447,40.655 c1.284,0.862,2.737,1.274,4.175,1.274c2.415,0,4.786-1.165,6.233-3.32C402.896,222.742,401.981,218.082,398.543,215.772z"></path></g></g><g><g><path d="M423.807,235.109c-3.125-2.716-7.862-2.383-10.58,0.744c-2.717,3.127-2.384,7.864,0.743,10.581 c6.741,5.855,13.102,12.054,19.092,18.544l-11.632,11.633c-2.929,2.929-2.929,7.678,0.001,10.606 c1.464,1.465,3.384,2.197,5.303,2.197s3.839-0.732,5.304-2.197l10.874-10.874c33.169,40.76,52.322,91.479,53.973,144.599h-53.908 c-4.143,0-7.5,3.358-7.5,7.5c0,4.142,3.357,7.5,7.5,7.5H504.5c4.143,0,7.5-3.358,7.5-7.5 C512,354.263,479.854,283.796,423.807,235.109z"></path></g></g><g><g><path d="M412.357,420.94H296.336c-1.056-5.124-3.113-10.078-6.168-14.553l50.336-50.337c2.929-2.929,2.929-7.678,0-10.606 c-2.93-2.929-7.678-2.929-10.607,0l-50.336,50.336c-15.722-10.734-37.398-9.14-51.341,4.802 c-5.78,5.781-9.431,12.893-10.969,20.358H15.116c1.656-53.371,20.95-103.823,53.625-144.184l10.46,10.459 c1.464,1.465,3.384,2.197,5.303,2.197c1.919,0,3.839-0.732,5.304-2.197c2.929-2.929,2.929-7.678-0.001-10.606l-11.244-11.243 c17.442-18.992,38.066-35.339,61.358-48.167c3.628-1.999,4.949-6.56,2.951-10.188c-1.997-3.627-6.557-4.949-10.188-2.952 C50.842,249.132,0,335.109,0,428.44c0,4.142,3.357,7.5,7.5,7.5h209.486c1.349,7.984,5.087,15.638,11.235,21.787 c7.877,7.877,18.225,11.816,28.572,11.816c10.347,0,20.695-3.938,28.572-11.816c0.001,0,0.001,0,0.001,0 c6.148-6.149,9.885-13.804,11.235-21.787h115.756c4.143,0,7.5-3.358,7.5-7.5C419.857,424.298,416.5,420.94,412.357,420.94z M274.761,447.121c-9.907,9.907-26.027,9.906-35.933,0c-9.906-9.907-9.906-26.026-0.001-35.932 c4.954-4.954,11.46-7.43,17.967-7.43c6.506,0,13.014,2.477,17.966,7.43C284.666,421.095,284.666,437.214,274.761,447.121z"></path></g></g><g><g><path d="M416.864,74.666h-303.62l19.405-19.406c2.93-2.929,2.93-7.678,0.001-10.606c-2.929-2.929-7.678-2.929-10.606,0 L89.833,76.863c-2.145,2.145-2.786,5.371-1.625,8.173c1.16,2.803,3.896,4.63,6.929,4.63h321.727c4.143,0,7.5-3.358,7.5-7.5 C424.364,78.024,421.007,74.666,416.864,74.666z"></path></g></g><g><g><path d="M423.793,109.983c-1.16-2.803-3.896-4.63-6.929-4.63H95.137c-4.143,0-7.5,3.358-7.5,7.5c0,4.142,3.357,7.5,7.5,7.5 h303.619l-19.405,19.406c-2.93,2.929-2.93,7.678-0.001,10.606c1.465,1.465,3.384,2.197,5.304,2.197 c1.919,0,3.839-0.732,5.303-2.197l32.211-32.209C424.313,116.011,424.954,112.785,423.793,109.983z"></path></g></g><g><g><path d="M87.178,375.915c-4.143,0-7.5,3.358-7.5,7.5v0.967c0,4.142,3.357,7.5,7.5,7.5c4.143,0,7.5-3.358,7.5-7.5v-0.967 C94.678,379.273,91.321,375.915,87.178,375.915z"></path></g></g><g><g><path d="M118.414,375.915c-4.143,0-7.5,3.358-7.5,7.5v0.967c0,4.142,3.357,7.5,7.5,7.5s7.5-3.358,7.5-7.5v-0.967 C125.914,379.273,122.557,375.915,118.414,375.915z"></path></g></g><g><g><path d="M149.65,375.915c-4.143,0-7.5,3.358-7.5,7.5v0.967c0,4.142,3.357,7.5,7.5,7.5s7.5-3.358,7.5-7.5v-0.967 C157.15,379.273,153.793,375.915,149.65,375.915z"></path></g></g><g><g><path d="M362.35,375.915c-4.143,0-7.5,3.358-7.5,7.5v0.967c0,4.142,3.357,7.5,7.5,7.5s7.5-3.358,7.5-7.5v-0.967 C369.85,379.273,366.493,375.915,362.35,375.915z"></path></g></g><g><g><path d="M393.586,375.915c-4.143,0-7.5,3.358-7.5,7.5v0.967c0,4.142,3.357,7.5,7.5,7.5s7.5-3.358,7.5-7.5v-0.967 C401.086,379.273,397.729,375.915,393.586,375.915z"></path></g></g><g><g><path d="M424.822,375.915c-4.143,0-7.5,3.358-7.5,7.5v0.967c0,4.142,3.357,7.5,7.5,7.5s7.5-3.358,7.5-7.5v-0.967 C432.322,379.273,428.965,375.915,424.822,375.915z"></path></g></g></svg>